<svg width="28" height="25" viewBox="0 0 28 25" fill="none" xmlns="http://www.w3.org/2000/svg">
<path d="M13.1227 4.82418L14 6.42735L14.8772 4.8242C15.3009 4.04992 16.0046 3.01827 17.034 2.2221L16.4223 1.43106L17.034 2.2221C18.0908 1.40482 19.2697 1 20.5625 1C24.1753 1 27 3.94234 27 8.06717C27 10.2438 26.1399 12.1174 24.4807 14.1195C22.7962 16.1522 20.3663 18.2273 17.3241 20.8198L17.324 20.8198L17.3227 20.821C16.3206 21.6749 15.1837 22.6438 14 23.6778C12.8171 22.6445 11.6806 21.676 10.6795 20.8228L10.6766 20.8203L10.6766 20.8203C7.63407 18.2275 5.20398 16.1523 3.51936 14.1196C1.86008 12.1174 1 10.2438 1 8.06717C1 3.94234 3.82471 1 7.4375 1C8.73035 1 9.90919 1.40482 10.966 2.2221L11.5777 1.43106L10.966 2.2221C11.9954 3.01828 12.6991 4.04988 13.1227 4.82418Z" stroke="#BCBCBC" stroke-width="2"/>
</svg>
