<svg width="75" height="26" viewBox="0 0 75 26" fill="none" xmlns="http://www.w3.org/2000/svg">
<path d="M1.69629 19V6.15039H3.79688V17.1982H9.2373V19H1.69629ZM13.2979 19H11.2324V9.2793H13.2979V19ZM11.1094 6.7041C11.1094 6.33496 11.209 6.05078 11.4082 5.85156C11.6133 5.65234 11.9033 5.55273 12.2783 5.55273C12.6416 5.55273 12.9229 5.65234 13.1221 5.85156C13.3271 6.05078 13.4297 6.33496 13.4297 6.7041C13.4297 7.05566 13.3271 7.33398 13.1221 7.53906C12.9229 7.73828 12.6416 7.83789 12.2783 7.83789C11.9033 7.83789 11.6133 7.73828 11.4082 7.53906C11.209 7.33398 11.1094 7.05566 11.1094 6.7041ZM21.2256 9.10352C22.4385 9.10352 23.3818 9.54297 24.0557 10.4219C24.7354 11.3008 25.0752 12.5342 25.0752 14.1221C25.0752 15.7158 24.7324 16.958 24.0469 17.8486C23.3613 18.7334 22.4092 19.1758 21.1904 19.1758C19.96 19.1758 19.0049 18.7334 18.3252 17.8486H18.1846L17.8066 19H16.2598V5.32422H18.3252V8.57617C18.3252 8.81641 18.3135 9.17383 18.29 9.64844C18.2666 10.123 18.249 10.4248 18.2373 10.5537H18.3252C18.9814 9.58691 19.9482 9.10352 21.2256 9.10352ZM20.6895 10.791C19.8574 10.791 19.2568 11.0371 18.8877 11.5293C18.5244 12.0156 18.3369 12.833 18.3252 13.9814V14.1221C18.3252 15.3057 18.5127 16.1641 18.8877 16.6973C19.2627 17.2246 19.875 17.4883 20.7246 17.4883C21.457 17.4883 22.0107 17.1982 22.3857 16.6182C22.7666 16.0381 22.957 15.2002 22.957 14.1045C22.957 11.8955 22.2012 10.791 20.6895 10.791Z" fill="black"/>
<path d="M51 5.19428C51 4.35136 50.2915 3.68436 49.4486 3.7308C44.435 4.00931 41.7328 5.62674 40.3377 6.96564C40.0518 7.24172 39.8906 7.62287 39.8906 8.0187V23.5357C39.8906 24.1417 40.5844 24.4861 41.0682 24.1197C42.627 22.9298 45.2633 21.7131 49.6098 21.4981C50.3892 21.459 51 20.8139 51 20.0346V5.19428H51Z" fill="black"/>
<path d="M28.3878 21.4981C32.7343 21.7131 35.3706 22.9274 36.9294 24.1197C37.4107 24.4886 38.107 24.1441 38.107 23.5358V8.01872C38.107 7.62045 37.9457 7.23933 37.6599 6.96566C36.2648 5.62676 33.5626 4.00933 28.5515 3.73083C27.7085 3.68196 27 4.34897 27 5.19431V20.037C27 20.814 27.6108 21.4614 28.3878 21.4981Z" fill="black"/>
<path d="M34.4072 9.10352C34.8232 9.10352 35.166 9.13281 35.4355 9.19141L35.2334 11.1162C34.9404 11.0459 34.6357 11.0107 34.3193 11.0107C33.4932 11.0107 32.8223 11.2803 32.3066 11.8193C31.7969 12.3584 31.542 13.0586 31.542 13.9199V19H29.4766V9.2793H31.0938L31.3662 10.9932H31.4717C31.7939 10.4131 32.2129 9.95312 32.7285 9.61328C33.25 9.27344 33.8096 9.10352 34.4072 9.10352ZM47.8281 19L47.415 17.6465H47.3447C46.876 18.2383 46.4043 18.6426 45.9297 18.8594C45.4551 19.0703 44.8457 19.1758 44.1016 19.1758C43.1465 19.1758 42.3994 18.918 41.8604 18.4023C41.3271 17.8867 41.0605 17.1572 41.0605 16.2139C41.0605 15.2119 41.4326 14.4561 42.1768 13.9463C42.9209 13.4365 44.0547 13.1582 45.5781 13.1113L47.2568 13.0586V12.54C47.2568 11.9189 47.1104 11.4561 46.8174 11.1514C46.5303 10.8408 46.082 10.6855 45.4727 10.6855C44.9746 10.6855 44.4971 10.7588 44.04 10.9053C43.583 11.0518 43.1436 11.2246 42.7217 11.4238L42.0537 9.94727C42.5811 9.67188 43.1582 9.46387 43.7852 9.32324C44.4121 9.17676 45.0039 9.10352 45.5605 9.10352C46.7969 9.10352 47.7285 9.37305 48.3555 9.91211C48.9883 10.4512 49.3047 11.2979 49.3047 12.4521V19H47.8281ZM44.752 17.5938C45.502 17.5938 46.1025 17.3857 46.5537 16.9697C47.0107 16.5479 47.2393 15.959 47.2393 15.2031V14.3594L45.9912 14.4121C45.0186 14.4473 44.3096 14.6113 43.8643 14.9043C43.4248 15.1914 43.2051 15.6338 43.2051 16.2314C43.2051 16.665 43.334 17.002 43.5918 17.2422C43.8496 17.4766 44.2363 17.5938 44.752 17.5938Z" fill="white"/>
</svg>
