<svg width="15" height="14" viewBox="0 0 15 14" fill="none" xmlns="http://www.w3.org/2000/svg">
<path d="M14.2294 4.7037L14.2298 4.70373C14.3486 4.71444 14.4486 4.79448 14.4852 4.90774L14.961 4.75393L14.4854 4.90829C14.5224 5.02219 14.4882 5.14609 14.3979 5.22509L14.3975 5.22544L11.125 8.0949L10.9011 8.29119L10.967 8.58153L11.932 12.832C11.9585 12.9493 11.9132 13.0696 11.8162 13.1399L11.8161 13.1399C11.7193 13.2101 11.5919 13.2151 11.491 13.1545L11.4899 13.1538L7.75672 10.9218L7.50018 10.7684L7.24363 10.9217L3.50909 13.1537L3.50887 13.1539C3.46005 13.1831 3.40809 13.1967 3.35693 13.1967C3.29711 13.1967 3.23663 13.1783 3.18291 13.1395C3.08678 13.07 3.04095 12.9502 3.06766 12.8319C3.06767 12.8319 3.06767 12.8318 3.06768 12.8318L4.03255 8.58153L4.09846 8.29122L3.87464 8.09493L0.602116 5.2249L0.601168 5.22407C0.512204 5.14645 0.477685 5.02271 0.514807 4.90855C0.551843 4.79465 0.651677 4.71481 0.770566 4.70366C0.770702 4.70365 0.770837 4.70364 0.770973 4.70362L5.10025 4.31058L5.39753 4.2836L5.51483 4.0091L7.22654 0.00336206C7.22656 0.00330001 7.22659 0.00323796 7.22662 0.00317597C7.27444 -0.108142 7.3817 -0.178146 7.50014 -0.178146C7.61869 -0.178146 7.72598 -0.108014 7.77374 0.00267553C7.77379 0.00280511 7.77385 0.00293475 7.77391 0.00306439L9.48544 4.00907L9.60272 4.28359L9.90002 4.31058L14.2294 4.7037Z" stroke="#FFC107"/>
</svg>
