<svg width="15" height="15" viewBox="0 0 15 15" fill="none" xmlns="http://www.w3.org/2000/svg">
<g clip-path="url(#clip0)">
<path d="M14.961 4.75393C14.8628 4.4502 14.5934 4.23447 14.2746 4.20575L9.94523 3.81263L8.23326 -0.194392C8.10703 -0.488055 7.81955 -0.678146 7.50014 -0.678146C7.18072 -0.678146 6.89324 -0.488055 6.76701 -0.193705L5.05504 3.81263L0.724946 4.20575C0.406793 4.23516 0.138078 4.4502 0.0393134 4.75393C-0.0594517 5.05767 0.0317601 5.39081 0.272436 5.60082L3.54496 8.47084L2.57997 12.7216C2.50936 13.0342 2.63067 13.3573 2.89 13.5447C3.02939 13.6454 3.19247 13.6967 3.35693 13.6967C3.49872 13.6967 3.63937 13.6585 3.76561 13.5829L7.50014 11.3509L11.2333 13.5829C11.5065 13.7473 11.8508 13.7323 12.1096 13.5447C12.369 13.3567 12.4902 13.0335 12.4196 12.7216L11.4546 8.47084L14.7272 5.60139C14.9678 5.39081 15.0597 5.05824 14.961 4.75393Z" fill="#FFC107"/>
</g>
<defs>
<clipPath id="clip0">
<rect width="15" height="15" fill="white"/>
</clipPath>
</defs>
</svg>
